<svg xmlns="http://www.w3.org/2000/svg" style="display: none;"><symbol id="cke_svgicon--arrow" viewBox="-297 393 16 8"><rect fill="currentColor" x="-297" y="396" width="12" height="2"/><path fill="currentColor" d="M-286,393v8l5-4L-286,393z"/></symbol>
<symbol id="cke_svgicon--attachment" viewBox="0 0 16 16"><g fill="currentColor"><path d="M6.9,16c-1.5,0-3-0.6-4.1-1.7C1.5,13,0.9,11.4,1,9.8s0.8-3.1,2.1-4.4l3.7-3.7c1-1,2.2-1.6,3.4-1.6c1.2-0.1,2.4,0.4,3.3,1.3c1,1,1.4,2.2,1.3,3.5c-0.2,1-0.8,2.1-1.7,3l-3.7,3.7c-2.2,2.2-3.8,1-4.4,0.4c-0.7-0.7-1-1.6-0.8-2.5c0.1-0.7,0.5-1.3,1.2-1.9l4.1-4.1l1.1,1.1L6.4,8.7C6,9.1,5.7,9.5,5.7,9.9c-0.1,0.4,0,0.7,0.4,1.1c0.3,0.3,0.9,0.9,2.2-0.4L12,6.8c0.7-0.7,1.1-1.5,1.2-2.3C13.3,3.7,13,3,12.4,2.4s-1.3-0.9-2.1-0.8C9.5,1.6,8.6,2,7.9,2.7L4.2,6.5c-1,1-1.6,2.2-1.7,3.4c-0.1,1.2,0.4,2.4,1.3,3.3c0.8,0.8,1.9,1.3,3,1.3c1.3,0,2.6-0.6,3.7-1.7l3-3l1.1,1.1l-3,3C10.3,15.3,8.6,16,6.9,16z"/></g></symbol>
<symbol id="cke_svgicon--attachmentcomputer" viewBox="0 0 16 16"><g stroke="none" stroke-width="1" fill="none" fill-rule="evenodd"><g transform="translate(-1099.000000, -637.000000)"></g><g fill="currentColor"><path d="M7.7031,15.9531 L6.2891,14.5391 L12.4601,8.3691 C14.2281,6.6001 13.8291,4.6181 12.6481,3.4371 C11.2721,2.0611 9.3371,2.2221 7.7161,3.8431 L2.9771,8.5811 C1.6911,9.8671 2.6961,10.9881 2.7071,10.9991 C2.9551,11.2481 3.8521,11.9741 4.9601,10.8661 L10.2251,5.6001 L11.6401,7.0151 L6.3741,12.2801 C4.4631,14.1931 2.2881,13.4081 1.2931,12.4131 C0.7491,11.8691 0.3911,11.0411 0.3351,10.1981 C0.2831,9.4281 0.4541,8.2751 1.5631,7.1671 L6.3021,2.4291 C8.7061,0.0231 11.8971,-0.1419 14.0621,2.0231 C15.9431,3.9041 16.4831,7.1741 13.8741,9.7831 L7.7031,15.9531 Z"></path></g></g></symbol>
<symbol id="cke_svgicon--attachmentdisk" viewBox="0 0 16 16"><g stroke="none" stroke-width="1" fill="currentColor" fill-rule="evenodd"><g transform="translate(-967.000000, -1093.000000)"></g><g fill="currentColor"><path d="M15.8446,6.3233 C15.5986,5.4133 14.3316,4.9193 12.5086,4.8563 C12.3066,4.7903 11.5446,4.5123 10.8276,3.8553 C9.5076,2.6463 8.1556,2.1033 6.5416,2.5353 C4.9276,2.9683 4.0286,4.1143 3.4896,5.8213 C3.2016,6.7353 2.6476,7.3543 2.4816,7.5253 C0.9256,8.4943 0.0706,9.5653 0.3176,10.4843 C0.5906,11.5053 2.0786,12.2993 4.3436,12.2433 C4.3066,12.1533 4.2766,12.0703 4.2576,12.0013 C4.1416,11.5663 4.0266,10.4483 5.4696,9.4673 C6.1076,9.0333 7.0076,8.6533 8.0716,8.3683 C8.9526,8.1323 9.7856,8.0073 10.4786,8.0073 C12.5386,8.0073 13.0616,9.1263 13.1906,9.6073 C13.2096,9.6803 13.2266,9.7673 13.2386,9.8603 C15.2366,8.7743 16.1206,7.3473 15.8446,6.3233 Z M10.4789,9.3071 C11.2709,9.3071 11.8179,9.5091 11.9349,9.9441 C12.1369,10.6981 10.8649,11.4961 9.0409,11.9851 C8.2639,12.1931 7.5469,12.3041 6.9639,12.3041 C6.1759,12.3041 5.6309,12.1021 5.5139,11.6651 C5.3099,10.9041 6.5829,10.1131 8.4079,9.6241 C9.1809,9.4161 9.8959,9.3071 10.4789,9.3071 Z"></path></g></g></symbol>
<symbol id="cke_svgicon--attachmentmail" viewBox="0 0 16 16"><g stroke="none" stroke-width="1" fill="none" fill-rule="evenodd"><g transform="translate(-967.000000, -181.000000)"></g><g fill="currentColor"><path d="M0,14 L16,14 L16,2 L0,2 L0,14 Z M14,3.79 L14,12 L2,12 L2,3.79 L8,9.156 L14,3.79 Z"></path></g></g></symbol>
<symbol id="cke_svgicon--bgcolor" viewBox="0 16 16 16"><path fill="currentColor" d="M14,19c0-0.6-0.4-1-1-1H3c-0.6,0-1,0.4-1,1v10c0,0.6,0.4,1,1,1h10c0.6,0,1-0.4,1-1V19z M12,22H9v6H7v-6H4v-2h8V22z"/></symbol>
<symbol id="cke_svgicon--blockquote" viewBox="0 16 16 16"><path fill="currentColor" d="M0,29h2l-2,2l1,1l3-3v-4H0V29z M16,17l-1-1l-3,3v4h4v-4h-2L16,17z M5,29h2l-2,2l1,1l3-3v-4H5V29z M10,16l-3,3v4h4v-4H9l2-2L10,16z"/></symbol>
<symbol id="cke_svgicon--bold-en" viewBox="0 16 16 16"><path fill="currentColor" d="M3.5,19h4.3c0.9,0,1.5,0,1.9,0.1s0.8,0.2,1.1,0.4s0.6,0.5,0.8,0.8c0.2,0.3,0.4,0.8,0.4,1.2c0,0.5-0.1,0.9-0.4,1.3c-0.3,0.4-0.6,0.7-1.1,0.9c0.7,0.2,1.2,0.5,1.5,0.9c0.4,0.4,0.5,0.9,0.5,1.5c0,0.5-0.1,0.9-0.3,1.3c-0.2,0.4-0.5,0.8-0.9,1c-0.4,0.3-0.9,0.4-1.5,0.5C9.4,29,8.5,29,7.2,29H3.5V19z M5.4,20.7V23h1.7c0.8,0,1.4,0,1.6,0c0.4,0,0.7-0.2,0.9-0.4c0.2-0.2,0.3-0.5,0.3-0.8c0-0.3-0.1-0.6-0.3-0.8s-0.5-0.3-0.8-0.3c-0.2,0-0.8,0-1.9,0H5.4z M5.5,24.6v2.7h2.2c0.8,0,1.3,0,1.5-0.1c0.3-0.1,1.7-0.3,1.7-1.3s-1.2-1.1-1.5-1.2c-0.4,0-1-0.1-2-0.1H5.5z"/></symbol>
<symbol id="cke_svgicon--bold-ru" viewBox="0 16 16 16"><path fill="currentColor" d="M10.7,23.7l3.7-4.7c-0.7,0-1.3,0-2,0c-0.1,0.1-3.5,4.6-3.6,4.7c0-1.6,0-3.2,0-4.7l0,0c-0.5,0-1.1,0-1.6,0l0,0c0,1.6,0,3.2,0,4.7c-0.1-0.1-3.5-4.6-3.6-4.7c-0.7,0-1.3,0-2,0l3.7,4.7c-0.1,0.1-4,5.2-4,5.3c0.7,0,1.3,0,2,0c1-1.4,2-2.8,3.1-4.2c0.3,0.3,0.5,0.7,0.8,1c0,1,0,2.1,0,3.2l0,0c0.5,0,1.1,0,1.6,0l0,0c0-1.1,0-2.1,0-3.2c0.3-0.4,0.5-0.7,0.8-1c1,1.4,2,2.8,3.1,4.2c0.7,0,1.3,0,2,0C14.7,29,10.7,23.8,10.7,23.7z"/></symbol>
<symbol id="cke_svgicon--bulletedlist" viewBox="0 16 16 16"><path fill="currentColor" d="M0,26h4v-4H0V26z M13,25H6v1h7V25z M0,20h4v-4H0V20z M14,19H6v1h8V19z M0,32h4v-4H0V32z M6,32h7v-1H6V32z M6,16v1h10v-1H6z M6,23h10v-1H6V23z M6,29h10v-1H6V29z"/></symbol>
<symbol id="cke_svgicon--close" viewBox="0 0 14 14"><path fill="currentColor" d="M14,0.7L13.3,0L7,6.3L0.7,0L0,0.7L6.3,7L0,13.3L0.7,14L7,7.7l6.3,6.3l0.7-0.7L7.7,7L14,0.7z"/></symbol>
<symbol id="cke_svgicon--codesnippet" viewBox="0 0 16 16"><g fill="currentColor"><path d="M0.2,8.6L0.2,8.6c-0.3-0.3-0.3-0.8,0.1-1.1l3-3c0.3-0.3,0.8-0.4,1.1-0.1l0,0c0.3,0.3,0.3,0.8-0.1,1.1l-3,3C1,8.9,0.5,8.9,0.2,8.6z"/><path d="M4.5,11.8L4.5,11.8c-0.3,0.3-0.8,0.3-1.1-0.1l-3-3c-0.3-0.3-0.4-0.8-0.1-1.1l0,0C0.5,7.3,1,7.3,1.3,7.6l3,3C4.7,11,4.7,11.5,4.5,11.8z"/></g><g fill="currentColor"><path d="M15.8,8.6L15.8,8.6c0.3-0.3,0.3-0.8-0.1-1.1l-3-3c-0.3-0.3-0.8-0.4-1.1-0.1l0,0c-0.3,0.3-0.3,0.8,0.1,1.1l3,3C15,8.9,15.5,8.9,15.8,8.6z"/><path d="M11.5,11.8L11.5,11.8c0.3,0.3,0.8,0.3,1.1-0.1l3-3c0.3-0.3,0.4-0.8,0.1-1.1l0,0c-0.3-0.3-0.8-0.3-1.1,0.1l-3,3C11.3,11,11.3,11.5,11.5,11.8z"/></g><path fill="currentColor" d="M6.9,13.9L6.9,13.9c-0.5-0.1-0.8-0.6-0.7-1.1l1.9-9.8C8.2,2.4,8.7,2,9.1,2.1l0,0c0.5,0.1,0.8,0.6,0.7,1.1l-1.9,9.8C7.8,13.6,7.3,14,6.9,13.9z"/></symbol>
<symbol id="cke_svgicon--emoticons" viewBox="0 16 16 16"><path fill="currentColor" d="M8,16c-4.4,0-8,3.6-8,8s3.6,8,8,8s8-3.6,8-8S12.5,16,8,16z M8,30.5c-3.6,0-6.5-2.9-6.5-6.5s2.9-6.5,6.5-6.5s6.5,2.9,6.5,6.5S11.6,30.5,8,30.5z M5.5,24C6.3,24,7,23.3,7,22.5S6.4,21,5.5,21S4,21.7,4,22.5S4.7,24,5.5,24z M10.5,24c1.5,0,1.5-1,1.5-1v-1h-2v1H9C9,23,9,24,10.5,24z M8,27.5c-1.8,0-3.6-1.8-3.6-1.9l-0.7,0.7c0.1,0.1,2.2,2.1,4.4,2.1s4.3-2.1,4.4-2.1l-0.7-0.7C11.7,25.7,9.8,27.5,8,27.5z"/></symbol>
<symbol id="cke_svgicon--font" viewBox="0 0 16 16"><g fill="currentColor"><path d="M2.4,14L7,2h1.7l4.9,12h-1.8l-1.2-3H5.2l-1.1,3H2.4z M5.8,9.1h4.1L8.7,5.7C8.3,4.7,8,3.9,7.8,3.3C7.7,4,7.4,4.8,7.2,5.6L5.8,9.1z"/></g></symbol>
<symbol id="cke_svgicon--fontsize" viewBox="0 0 16 16"><path fill="currentColor" d="M12,2H7H5H0v2h5v10h2V4h5V2z M10,7v2h2v5h2V9h2V7H10z"/></symbol>
<symbol id="cke_svgicon--info" viewBox="0 0 16 16"><g stroke="none" stroke-width="1" fill="currentColor"><g transform="translate(-730.000000, -1093.000000)"></g><g><path d="M8,0 C3.582,0 0,3.582 0,8 C0,12.418 3.582,16 8,16 C12.418,16 16,12.418 16,8 C16,3.582 12.418,0 8,0 Z M8,1.8 C11.419,1.8 14.2,4.581 14.2,8 C14.2,11.419 11.419,14.2 8,14.2 C4.581,14.2 1.8,11.419 1.8,8 C1.8,4.581 4.581,1.8 8,1.8 Z M9,12 L7,12 L7,7.129 L9,7.129 L9,12 Z M9,5.894 L7,5.894 L7,4 L9,4 L9,5.894 Z"></path></g></g></symbol>
<symbol id="cke_svgicon--italic-en" viewBox="0 16 16 16"><path fill="currentColor" d="M5.9,29L8,19h2.1L8,29H5.9z"/></symbol>
<symbol id="cke_svgicon--italic-ru" viewBox="0 16 16 16"><path fill="currentColor" d="M13,19c-0.6,0-1.6,0-2.1,0c-0.1,0.1-4.6,4.3-4.8,4.5c0-0.1,1-4.5,1-4.5c-0.5,0-1.5,0-1.9,0C5.1,19.1,3,28.9,3,29c0.4,0,1.5,0,1.9,0c0-0.1,0.7-3.2,0.7-3.4c0.1-0.1,0.9-0.8,1.1-1c0,0.1,2.5,4.2,2.6,4.4c0.5,0,1.5,0,1.9,0c-0.1-0.2-3.3-5.1-3.4-5.3C7.9,23.7,13,19,13,19z"/></symbol>
<symbol id="cke_svgicon--justifyblock" viewBox="0 16 16 16"><path fill="currentColor" d="M0,32h16v-1H0V32z M0,26h16v-1H0V26z M0,29h16v-1H0V29z M0,16v1h16v-1H0z M0,23h16v-1H0V23z M0,20h16v-1H0V20z"/></symbol>
<symbol id="cke_svgicon--justifycenter" viewBox="0 16 16 16"><path fill="currentColor" d="M2,25v1h12v-1H2z M0,29h16v-1H0V29z M2,32h12v-1H2V32z M0,23h16v-1H0V23z M2,19v1h12v-1H2z M0,16v1h16v-1H0z"/></symbol>
<symbol id="cke_svgicon--justifyleft" viewBox="0 16 16 16"><path fill="currentColor" d="M12,25H0v1h12V25z M12,19H0v1h12V19z M0,32h12v-1H0V32z M0,23h16v-1H0V23z M0,16v1h16v-1H0z M0,29h16v-1H0V29z"/></symbol>
<symbol id="cke_svgicon--justifyright" viewBox="0 16 16 16"><path fill="currentColor" d="M4,32h12v-1H4V32z M4,26h12v-1H4V26z M0,29h16v-1H0V29z M0,16v1h16v-1H0z M0,23h16v-1H0V23z M4,20h12v-1H4V20z"/></symbol>
<symbol id="cke_svgicon--link" viewBox="0 16 16 16"><path fill="currentColor" d="M7.5,26.5c0.1,0.2,0.1,0.4,0.1,0.5c0,0.4-0.1,0.7-0.4,1l-2,2c-0.3,0.3-0.6,0.4-1,0.4s-0.7-0.1-1-0.4l-1.4-1.4c-0.3-0.3-0.4-0.6-0.4-1s0.1-0.7,0.4-1l2-2c0.3-0.3,0.6-0.4,1-0.4c0.2,0,0.4,0,0.5,0.1l1.1-1.1c-0.3-0.2-0.9-0.4-1.5-0.4c-0.7,0-1.5,0.3-2,0.8l-2,2c-1.1,1.1-1.1,3,0,4.1l1.4,1.4c0.6,0.6,1.3,0.8,2,0.8s1.5-0.3,2-0.8l2-2c1-1,1.1-2.6,0.3-3.7L7.5,26.5z M15.2,18.2l-1.4-1.4c-0.6-0.6-1.3-0.8-2-0.8s-1.5,0.3-2,0.8l-2,2c-1,1-1.1,2.6-0.3,3.7l1.1-1.1c-0.2-0.1-0.2-0.3-0.2-0.5c0-0.4,0.1-0.7,0.4-1l2-2c0.3-0.3,0.6-0.4,1-0.4s0.7,0.1,1,0.4l1.4,1.4c0.3,0.3,0.4,0.6,0.4,1c0,0.4-0.1,0.7-0.4,1l-2,2c-0.3,0.3-0.6,0.4-1,0.4c-0.2,0-0.4,0-0.5-0.1l-1.3,1c0.5,0.4,1.1,0.5,1.7,0.5c0.7,0,1.5-0.3,2-0.8l2-2C16.3,21.2,16.3,19.4,15.2,18.2z M5.2,27.4l6.1-6.1l-0.5-0.5l-6.1,6.1L5.2,27.4z"/></symbol>
<symbol id="cke_svgicon--lock" viewBox="0 841.9 18 18"><path fill="currentColor" d="M93.5,5.5V4.583c0,0-0.062-5-5-5s-5,5-5,5V5.5h-1v0.021v6.554c0,1.305,0.895,2.363,2,2.363h8c1.105,0,2-1.058,2-2.363V5.521V5.5H93.5z M85.5,5.5V4.583c0,0,0-3,3-3s3,3,3,3V5.5H85.5z"/></symbol>
<symbol id="cke_svgicon--mailbgcolor" viewBox="0 16 16 16"><path fill="currentColor" d="M14,19c0-0.6-0.4-1-1-1H3c-0.6,0-1,0.4-1,1v10c0,0.6,0.4,1,1,1h10c0.6,0,1-0.4,1-1V19z M12,22H9v6H7v-6H4v-2h8V22z"/></symbol>
<symbol id="cke_svgicon--mailfont" viewBox="0 0 16 16"><g fill="currentColor"><path d="M2.4,14L7,2h1.7l4.9,12h-1.8l-1.2-3H5.2l-1.1,3H2.4z M5.8,9.1h4.1L8.7,5.7C8.3,4.7,8,3.9,7.8,3.3C7.7,4,7.4,4.8,7.2,5.6L5.8,9.1z"/></g></symbol>
<symbol id="cke_svgicon--mailfontsize" viewBox="0 0 16 16"><path fill="currentColor" d="M12,2H7H5H0v2h5v10h2V4h5V2z M10,7v2h2v5h2V9h2V7H10z"/></symbol>
<symbol id="cke_svgicon--mailtextcolor" viewBox="0 16 16 16"><path fill="currentColor" d="M2,30h12v-2H2V30z M2,18v2h5v7h2v-7h5v-2H2z"/></symbol>
<symbol id="cke_svgicon--maximize" viewBox="0 0 16 16"><path fill="currentColor" d="M6.6,9.4c-0.3-0.3-0.9-0.3-1.2,0L2.8,12v-1.4c0-0.5-0.4-0.9-0.9-0.9h0C1.4,9.8,1,10.1,1,10.6v3.5C1,14.6,1.4,15,1.9,15h3.5c0.5,0,0.9-0.4,0.9-0.9v0c0-0.5-0.4-0.9-0.9-0.9H4l2.6-2.6C6.9,10.3,6.9,9.8,6.6,9.4L6.6,9.4z M14.1,9.8L14.1,9.8c-0.5,0-0.9,0.4-0.9,0.9V12l-2.6-2.6c-0.3-0.3-0.9-0.3-1.2,0l0,0c-0.3,0.3-0.3,0.9,0,1.2l2.6,2.6h-1.4c-0.5,0-0.9,0.4-0.9,0.9v0c0,0.5,0.4,0.9,0.9,0.9h3.5c0.5,0,0.9-0.4,0.9-0.9v-3.5C15,10.1,14.6,9.8,14.1,9.8z M4,2.8h1.4c0.5,0,0.9-0.4,0.9-0.9v0C6.2,1.4,5.9,1,5.4,1H1.9C1.4,1,1,1.4,1,1.9v3.5c0,0.5,0.4,0.9,0.9,0.9h0c0.5,0,0.9-0.4,0.9-0.9V4l2.6,2.6c0.3,0.3,0.9,0.3,1.2,0l0,0c0.3-0.3,0.3-0.9,0-1.2L4,2.8z M14.1,1h-3.5c-0.5,0-0.9,0.4-0.9,0.9v0c0,0.5,0.4,0.9,0.9,0.9H12L9.4,5.3c-0.3,0.3-0.3,0.9,0,1.2l0,0c0.3,0.3,0.9,0.3,1.2,0L13.2,4v1.4c0,0.5,0.4,0.9,0.9,0.9h0c0.5,0,0.9-0.4,0.9-0.9V1.9C15,1.4,14.6,1,14.1,1z"/></symbol>
<symbol id="cke_svgicon--menualignment" viewBox="0 16 16 16"><path fill="currentColor" d="M12,25H0v1h12V25z M12,19H0v1h12V19z M0,32h12v-1H0V32z M0,23h16v-1H0V23z M0,16v1h16v-1H0z M0,29h16v-1H0V29z"/></symbol>
<symbol id="cke_svgicon--menulist" viewBox="0 16 16 16"><path fill="currentColor" d="M0,26h4v-4H0V26z M13,25H6v1h7V25z M0,20h4v-4H0V20z M14,19H6v1h8V19z M0,32h4v-4H0V32z M6,32h7v-1H6V32z M6,16v1h10v-1H6z M6,23h10v-1H6V23z M6,29h10v-1H6V29z"/></symbol>
<symbol id="cke_svgicon--menuselection-en" viewBox="0 16 16 16"><path fill="currentColor" d="M3.5,19h4.3c0.9,0,1.5,0,1.9,0.1s0.8,0.2,1.1,0.4s0.6,0.5,0.8,0.8c0.2,0.3,0.4,0.8,0.4,1.2c0,0.5-0.1,0.9-0.4,1.3c-0.3,0.4-0.6,0.7-1.1,0.9c0.7,0.2,1.2,0.5,1.5,0.9c0.4,0.4,0.5,0.9,0.5,1.5c0,0.5-0.1,0.9-0.3,1.3c-0.2,0.4-0.5,0.8-0.9,1c-0.4,0.3-0.9,0.4-1.5,0.5C9.4,29,8.5,29,7.2,29H3.5V19z M5.4,20.7V23h1.7c0.8,0,1.4,0,1.6,0c0.4,0,0.7-0.2,0.9-0.4c0.2-0.2,0.3-0.5,0.3-0.8c0-0.3-0.1-0.6-0.3-0.8s-0.5-0.3-0.8-0.3c-0.2,0-0.8,0-1.9,0H5.4z M5.5,24.6v2.7h2.2c0.8,0,1.3,0,1.5-0.1c0.3-0.1,1.7-0.3,1.7-1.3s-1.2-1.1-1.5-1.2c-0.4,0-1-0.1-2-0.1H5.5z"/></symbol>
<symbol id="cke_svgicon--menuselection-ru" viewBox="0 16 16 16"><path fill="currentColor" d="M10.7,23.7l3.7-4.7c-0.7,0-1.3,0-2,0c-0.1,0.1-3.5,4.6-3.6,4.7c0-1.6,0-3.2,0-4.7l0,0c-0.5,0-1.1,0-1.6,0l0,0c0,1.6,0,3.2,0,4.7c-0.1-0.1-3.5-4.6-3.6-4.7c-0.7,0-1.3,0-2,0l3.7,4.7c-0.1,0.1-4,5.2-4,5.3c0.7,0,1.3,0,2,0c1-1.4,2-2.8,3.1-4.2c0.3,0.3,0.5,0.7,0.8,1c0,1,0,2.1,0,3.2l0,0c0.5,0,1.1,0,1.6,0l0,0c0-1.1,0-2.1,0-3.2c0.3-0.4,0.5-0.7,0.8-1c1,1.4,2,2.8,3.1,4.2c0.7,0,1.3,0,2,0C14.7,29,10.7,23.8,10.7,23.7z"/></symbol>
<symbol id="cke_svgicon--numberedlist" viewBox="0 16 16 16"><path fill="currentColor" d="M1,20h1v-4H0v1h1V20z M12,25H5v1h7V25z M5,16v1h11v-1H5z M12,19H5v1h7V19z M0,29h2v0.3l-0.5,0.2v1L2,30.7V31H0v1h3v-4H0V29z M5,23h11v-1H5V23z M5,29h11v-1H5V29z M0,23h2l-2,2v1h3v-1H1l2-2v-1H0V23z M5,32h7v-1H5V32z"/></symbol>
<symbol id="cke_svgicon--pastefromword" viewBox="0 0 16 16"><g fill="currentColor"><path d="M13,2h-3C9.7,0.6,8.9,0,8,0S6.2,0.7,6,2H3C1.9,2,1,2.9,1,4v10c0,1.1,0.9,2,2,2h10c1.1,0,2-0.9,2-2V4C15,2.9,14.1,2,13,2zM8,0.5c0.8,0,1.5,0.7,1.5,1.5c0,0.8-0.7,1.5-1.5,1.5S6.5,2.8,6.5,2C6.5,1.2,7.2,0.5,8,0.5z M14,15H2V3h3v2h6V3h3V15z M9.6,10.9L8.5,7H7.5l-1.1,3.9L5.4,7H4l1.6,6H7l1-3.5l1,3.5h1.4L12,7h-1.4L9.6,10.9z"/></g></symbol>
<symbol id="cke_svgicon--redo" viewBox="0 16 16 16"><path fill="currentColor" d="M14,24c0-3.9-3.1-7-7-7s-7,3.1-7,7s3.1,7,7,7c0.3,0,0.7,0,1-0.1v-1.8c-0.3,0.1-0.7,0.1-1,0.1c-2.9,0-5.2-2.4-5.2-5.2c0-2.9,2.4-5.2,5.2-5.2s5.2,2.4,5.2,5.2H10l3,3l3-3H14z"/></symbol>
<symbol id="cke_svgicon--refresh" viewBox="0 841.9 18 18"><path fill="currentColor" d="M2,850.9c0-2.4,1.2-4.5,3-5.7v1.7c0,0.5,0.4,1,1,1s1-0.5,1-1v-4c0-0.3-0.1-0.5-0.3-0.7l0,0c-0.2-0.2-0.4-0.3-0.7-0.3H2c-0.6,0-1,0.4-1,1s0.5,1,1,1h1.4c-2.1,1.7-3.4,4.2-3.4,7c0,5,4,9,9,9v-2C5.1,857.9,2,854.8,2,850.9z M16,857.9h-1.4c2-1.7,3.4-4.2,3.4-7c0-5-4-9-9-9v2c3.9,0,7,3.1,7,7c0,2.4-1.2,4.5-3,5.7v-1.7c0-0.5-0.4-1-1-1s-1,0.5-1,1v4c0,0.3,0.1,0.5,0.3,0.7l0,0c0.2,0.2,0.4,0.3,0.7,0.3h4c0.5,0,1-0.4,1-1C17,858.3,16.5,857.9,16,857.9z"/></symbol>
<symbol id="cke_svgicon--removeformat" viewBox="0 16 16 16"><polygon fill="currentColor" points="16,20 16,16 2,16 2,17 0,17 0,22 8,22 8,24 7,24 7,32 10,32 10,24 9,24 9,21 1,21 1,18 2,18 2,20 "/></symbol>
<symbol id="cke_svgicon--strike-en" viewBox="0 0 16 16"><path fill="currentColor" d="M14,7h-2l0-4h-1l-1,0l0,4H6l0-4L5,3L4,3l0,4H2v1h2l0,3c0.3,1.2,1.7,2,3,2c0.4,0,1.8,0,2.3,0c1.3,0,2.4-0.8,2.7-2l0-3h2V7z M9.6,11H6.4C6.2,11,6,10.8,6,10.6L6,8H10l0,2.6C10.1,10.8,9.8,11,9.6,11z"/></symbol>
<symbol id="cke_svgicon--strike-ru" viewBox="0 0 16 16"><polygon fill="currentColor" points="14,5 14,3 2,3 2,5 7,5 7,8 2,8 2,9 7,9 7,13 8.8,13 8.8,9 14,9 14,8 8.8,8 8.8,5 "/></symbol>
<symbol id="cke_svgicon--switchmode-off" viewBox="18.5 -3.5 16 16"><path fill="currentColor" d="M18.5-3.5v16h16v-16H18.5z M32.5,10.5h-12v-12h12V10.5z"/><rect fill="currentColor" x="22.5" y="0.5" width="4" height="4"/><polygon fill="currentColor" points="29.5,0.5 28.5,3.5 30.5,3.5 "/><rect fill="currentColor" x="22.5" y="5.5" width="8" height="1"/><rect fill="currentColor" x="22.5" y="7.5" width="6" height="1"/></symbol>
<symbol id="cke_svgicon--switchmode-on" viewBox="18.5 2.5 16 16"><g fill="currentColor"><rect x="22.5" y="10.5" width="8" height="1"/><rect x="22.5" y="8.5" width="8" height="1"/><rect x="22.5" y="6.5" width="8" height="1"/><rect x="22.5" y="12.5" width="6" height="1"/><path d="M18.5,2.5v16h16v-16H18.5z M32.5,16.5h-12v-12h12V16.5z"/></g></symbol>
<symbol id="cke_svgicon--switchmode" viewBox="18.5 2.5 16 16"><g fill="currentColor"><rect x="22.5" y="10.5" width="8" height="1"/><rect x="22.5" y="8.5" width="8" height="1"/><rect x="22.5" y="6.5" width="8" height="1"/><rect x="22.5" y="12.5" width="6" height="1"/><path d="M18.5,2.5v16h16v-16H18.5z M32.5,16.5h-12v-12h12V16.5z"/></g></symbol>
<symbol id="cke_svgicon--textcolor" viewBox="0 16 16 16"><path fill="currentColor" d="M2,30h12v-2H2V30z M2,18v2h5v7h2v-7h5v-2H2z"/></symbol>
<symbol id="cke_svgicon--underline-en" viewBox="0 16 16 16"><path fill="currentColor" d="M6.7,27c0.4,0,2.1,0,2.5,0c1.3,0,2.3-0.8,2.6-2l0.2-6h-1h-1l0.1,5.5c0,0.3-0.3,0.5-0.5,0.5H6.4C6.2,25,6,24.8,6,24.6V19H5H4l0.1,6C4.4,26.2,5.5,27,6.7,27z M4,28v1h8v-1H4z"/></symbol>
<symbol id="cke_svgicon--underline-ru" viewBox="0 16 16 16"><path fill="currentColor" d="M6.7,24c1.2,0,2.4-0.1,3-0.5c0.1-0.1,0.3,0,0.3,0.2V27h2v-8h-2v2.7c0,0.2-0.1,0.3-0.3,0.3H6.4C6.2,22,6,21.8,6,21.6V19H4v2.3C4,22.8,5.2,24,6.7,24z M4,28v1h8v-1H4z"/></symbol>
<symbol id="cke_svgicon--undo" viewBox="0 16 16 16"><path fill="currentColor" d="M9,17c-3.9,0-7,3.1-7,7H0l3,3l3-3H3.8c0-2.9,2.4-5.2,5.2-5.2s5.2,2.4,5.2,5.2c0,2.9-2.4,5.2-5.2,5.2c-0.3,0-0.7,0-1-0.1v1.8C8.3,31,8.7,31,9,31c3.9,0,7-3.1,7-7S12.9,17,9,17z"/></symbol>
<symbol id="cke_svgicon--unlink" viewBox="0 16 16 16"><path fill="currentColor" d="M15.1,18.2l-1.4-1.4c-0.6-0.6-1.3-0.8-2-0.8s-1.5,0.3-2,0.8l-2,2c-0.3,0.3-0.5,0.5-0.6,0.7l1.2,1.2c0-0.3,0.2-0.5,0.3-0.7l2-2c0.3-0.3,0.6-0.4,1-0.4s0.7,0.1,1,0.4l1.4,1.4c0.3,0.3,0.4,0.6,0.4,1s-0.1,0.7-0.4,1l-2,2c-0.2,0.2-0.5,0.3-0.7,0.3l1.2,1.2c0.2-0.1,0.4-0.3,0.6-0.5l2-2C16.2,21.2,16.2,19.3,15.1,18.2z M7.3,28l-2,2c-0.3,0.3-0.6,0.4-1,0.4s-0.7-0.1-1-0.4l-1.4-1.4c-0.3-0.3-0.4-0.6-0.4-1s0.1-0.7,0.4-1l2-2c0.1-0.1,0.2-0.1,0.3-0.2l-1.1-0.9c0,0-0.1,0.1-0.2,0.2l-2,2c-1.1,1.1-1.1,3,0,4.1l1.4,1.4c0.6,0.6,1.3,0.8,2,0.8s1.5-0.3,2-0.8l2-2c0.1-0.1,0.1-0.2,0.2-0.3l-1.1-1.1C7.4,27.8,7.3,27.9,7.3,28z"/></symbol>
</svg>