<?xml version="1.0" encoding="UTF-8" standalone="no"?>
<svg width="16px" height="16px" viewBox="0 0 16 16" version="1.1" xmlns="http://www.w3.org/2000/svg" xmlns:xlink="http://www.w3.org/1999/xlink">
    <!-- Generator: Sketch 39.1 (31720) - http://www.bohemiancoding.com/sketch -->
    <title>Attach-16</title>
    <desc>Created with Sketch.</desc>
    <defs></defs>
    <g id="Page-1" stroke="none" stroke-width="1" fill="none" fill-rule="evenodd">
        <g id="Artboard-413" transform="translate(-1099.000000, -637.000000)"></g>
        <g id="Attach-16" fill="#000000">
            <path d="M7.7031,15.9531 L6.2891,14.5391 L12.4601,8.3691 C14.2281,6.6001 13.8291,4.6181 12.6481,3.4371 C11.2721,2.0611 9.3371,2.2221 7.7161,3.8431 L2.9771,8.5811 C1.6911,9.8671 2.6961,10.9881 2.7071,10.9991 C2.9551,11.2481 3.8521,11.9741 4.9601,10.8661 L10.2251,5.6001 L11.6401,7.0151 L6.3741,12.2801 C4.4631,14.1931 2.2881,13.4081 1.2931,12.4131 C0.7491,11.8691 0.3911,11.0411 0.3351,10.1981 C0.2831,9.4281 0.4541,8.2751 1.5631,7.1671 L6.3021,2.4291 C8.7061,0.0231 11.8971,-0.1419 14.0621,2.0231 C15.9431,3.9041 16.4831,7.1741 13.8741,9.7831 L7.7031,15.9531 Z" id="Shape"></path>
        </g>
    </g>
</svg>