<?xml version="1.0" encoding="UTF-8" standalone="no"?>
<svg width="16px" height="16px" viewBox="0 0 16 16" version="1.1" xmlns="http://www.w3.org/2000/svg" xmlns:xlink="http://www.w3.org/1999/xlink">
    <!-- Generator: Sketch 39.1 (31720) - http://www.bohemiancoding.com/sketch -->
    <title>disc-16</title>
    <desc>Created with Sketch.</desc>
    <defs></defs>
    <g id="Page-1" stroke="none" stroke-width="1" fill="none" fill-rule="evenodd">
        <g id="Artboard-413" transform="translate(-967.000000, -1093.000000)"></g>
        <g id="disc-16" fill="#000000">
            <path d="M15.8446,6.3233 C15.5986,5.4133 14.3316,4.9193 12.5086,4.8563 C12.3066,4.7903 11.5446,4.5123 10.8276,3.8553 C9.5076,2.6463 8.1556,2.1033 6.5416,2.5353 C4.9276,2.9683 4.0286,4.1143 3.4896,5.8213 C3.2016,6.7353 2.6476,7.3543 2.4816,7.5253 C0.9256,8.4943 0.0706,9.5653 0.3176,10.4843 C0.5906,11.5053 2.0786,12.2993 4.3436,12.2433 C4.3066,12.1533 4.2766,12.0703 4.2576,12.0013 C4.1416,11.5663 4.0266,10.4483 5.4696,9.4673 C6.1076,9.0333 7.0076,8.6533 8.0716,8.3683 C8.9526,8.1323 9.7856,8.0073 10.4786,8.0073 C12.5386,8.0073 13.0616,9.1263 13.1906,9.6073 C13.2096,9.6803 13.2266,9.7673 13.2386,9.8603 C15.2366,8.7743 16.1206,7.3473 15.8446,6.3233 Z M10.4789,9.3071 C11.2709,9.3071 11.8179,9.5091 11.9349,9.9441 C12.1369,10.6981 10.8649,11.4961 9.0409,11.9851 C8.2639,12.1931 7.5469,12.3041 6.9639,12.3041 C6.1759,12.3041 5.6309,12.1021 5.5139,11.6651 C5.3099,10.9041 6.5829,10.1131 8.4079,9.6241 C9.1809,9.4161 9.8959,9.3071 10.4789,9.3071 Z" id="Shape"></path>
        </g>
    </g>
</svg>