<?xml version="1.0" encoding="utf-8"?>
<!-- Generator: Adobe Illustrator 17.1.0, SVG Export Plug-In . SVG Version: 6.00 Build 0)  -->
<!DOCTYPE svg PUBLIC "-//W3C//DTD SVG 1.1//EN" "http://www.w3.org/Graphics/SVG/1.1/DTD/svg11.dtd">
<svg version="1.1" id="Layer_1" xmlns="http://www.w3.org/2000/svg" xmlns:xlink="http://www.w3.org/1999/xlink" x="0px" y="0px"
	 width="16px" height="16px" viewBox="0 16 16 16" enable-background="new 0 16 16 16" xml:space="preserve">
<path fill="currentColor" d="M8,16c-4.4,0-8,3.6-8,8s3.6,8,8,8s8-3.6,8-8S12.5,16,8,16z M8,30.5c-3.6,0-6.5-2.9-6.5-6.5s2.9-6.5,6.5-6.5s6.5,2.9,6.5,6.5
	S11.6,30.5,8,30.5z M5.5,24C6.3,24,7,23.3,7,22.5S6.4,21,5.5,21S4,21.7,4,22.5S4.7,24,5.5,24z M10.5,24c1.5,0,1.5-1,1.5-1v-1h-2v1H9
	C9,23,9,24,10.5,24z M8,27.5c-1.8,0-3.6-1.8-3.6-1.9l-0.7,0.7c0.1,0.1,2.2,2.1,4.4,2.1s4.3-2.1,4.4-2.1l-0.7-0.7
	C11.7,25.7,9.8,27.5,8,27.5z"/>
</svg>
