<?xml version="1.0" encoding="utf-8"?>
<!-- Generator: Adobe Illustrator 17.1.0, SVG Export Plug-In . SVG Version: 6.00 Build 0)  -->
<!DOCTYPE svg PUBLIC "-//W3C//DTD SVG 1.1//EN" "http://www.w3.org/Graphics/SVG/1.1/DTD/svg11.dtd">
<svg version="1.1" id="Layer_1" xmlns="http://www.w3.org/2000/svg" xmlns:xlink="http://www.w3.org/1999/xlink" x="0px" y="0px"
	 width="16px" height="16px" viewBox="0 16 16 16" enable-background="new 0 16 16 16" xml:space="preserve">
<path fill="currentColor" d="M13,19c-0.6,0-1.6,0-2.1,0c-0.1,0.1-4.6,4.3-4.8,4.5c0-0.1,1-4.5,1-4.5c-0.5,0-1.5,0-1.9,0C5.1,19.1,3,28.9,3,29
	c0.4,0,1.5,0,1.9,0c0-0.1,0.7-3.2,0.7-3.4c0.1-0.1,0.9-0.8,1.1-1c0,0.1,2.5,4.2,2.6,4.4c0.5,0,1.5,0,1.9,0c-0.1-0.2-3.3-5.1-3.4-5.3
	C7.9,23.7,13,19,13,19z"/>
</svg>
