<?xml version="1.0" encoding="utf-8"?>
<!-- Generator: Adobe Illustrator 17.1.0, SVG Export Plug-In . SVG Version: 6.00 Build 0)  -->
<!DOCTYPE svg PUBLIC "-//W3C//DTD SVG 1.1//EN" "http://www.w3.org/Graphics/SVG/1.1/DTD/svg11.dtd">
<svg version="1.1" id="Layer_1" xmlns="http://www.w3.org/2000/svg" xmlns:xlink="http://www.w3.org/1999/xlink" x="0px" y="0px"
	 width="16px" height="16px" viewBox="0 0 16 16" enable-background="new 0 0 16 16" xml:space="preserve">
<path fill="currentColor" d="M14,7h-2l0-4h-1l-1,0l0,4H6l0-4L5,3L4,3l0,4H2v1h2l0,3c0.3,1.2,1.7,2,3,2c0.4,0,1.8,0,2.3,0c1.3,0,2.4-0.8,2.7-2l0-3h2V7z
	 M9.6,11H6.4C6.2,11,6,10.8,6,10.6L6,8H10l0,2.6C10.1,10.8,9.8,11,9.6,11z"/>
</svg>
