<?xml version="1.0" encoding="utf-8"?>
<!-- Generator: Adobe Illustrator 17.1.0, SVG Export Plug-In . SVG Version: 6.00 Build 0)  -->
<!DOCTYPE svg PUBLIC "-//W3C//DTD SVG 1.1//EN" "http://www.w3.org/Graphics/SVG/1.1/DTD/svg11.dtd">
<svg version="1.1" id="Layer_1" xmlns="http://www.w3.org/2000/svg" xmlns:xlink="http://www.w3.org/1999/xlink" x="0px" y="0px"
	 width="16px" height="16px" viewBox="0 16 16 16" enable-background="new 0 16 16 16" xml:space="preserve">
<path fill="currentColor" d="M15.1,18.2l-1.4-1.4c-0.6-0.6-1.3-0.8-2-0.8s-1.5,0.3-2,0.8l-2,2c-0.3,0.3-0.5,0.5-0.6,0.7l1.2,1.2c0-0.3,0.2-0.5,0.3-0.7
	l2-2c0.3-0.3,0.6-0.4,1-0.4s0.7,0.1,1,0.4l1.4,1.4c0.3,0.3,0.4,0.6,0.4,1s-0.1,0.7-0.4,1l-2,2c-0.2,0.2-0.5,0.3-0.7,0.3l1.2,1.2
	c0.2-0.1,0.4-0.3,0.6-0.5l2-2C16.2,21.2,16.2,19.3,15.1,18.2z M7.3,28l-2,2c-0.3,0.3-0.6,0.4-1,0.4s-0.7-0.1-1-0.4l-1.4-1.4
	c-0.3-0.3-0.4-0.6-0.4-1s0.1-0.7,0.4-1l2-2c0.1-0.1,0.2-0.1,0.3-0.2l-1.1-0.9c0,0-0.1,0.1-0.2,0.2l-2,2c-1.1,1.1-1.1,3,0,4.1
	l1.4,1.4c0.6,0.6,1.3,0.8,2,0.8s1.5-0.3,2-0.8l2-2c0.1-0.1,0.1-0.2,0.2-0.3l-1.1-1.1C7.4,27.8,7.3,27.9,7.3,28z"/>
</svg>
