<?xml version="1.0" encoding="utf-8"?>
<!-- Generator: Adobe Illustrator 17.0.0, SVG Export Plug-In . SVG Version: 6.00 Build 0)  -->
<!DOCTYPE svg PUBLIC "-//W3C//DTD SVG 1.1//EN" "http://www.w3.org/Graphics/SVG/1.1/DTD/svg11.dtd">
<svg version="1.1" id="Layer_1" xmlns="http://www.w3.org/2000/svg" xmlns:xlink="http://www.w3.org/1999/xlink" x="0px" y="0px"
	 width="16px" height="16px" viewBox="0 0 16 16" style="enable-background:new 0 0 16 16;" xml:space="preserve">
<g fill="currentColor">
	<path d="M6.9,16c-1.5,0-3-0.6-4.1-1.7C1.5,13,0.9,11.4,1,9.8s0.8-3.1,2.1-4.4l3.7-3.7c1-1,2.2-1.6,3.4-1.6c1.2-0.1,2.4,0.4,3.3,1.3
		c1,1,1.4,2.2,1.3,3.5c-0.2,1-0.8,2.1-1.7,3l-3.7,3.7c-2.2,2.2-3.8,1-4.4,0.4c-0.7-0.7-1-1.6-0.8-2.5c0.1-0.7,0.5-1.3,1.2-1.9
		l4.1-4.1l1.1,1.1L6.4,8.7C6,9.1,5.7,9.5,5.7,9.9c-0.1,0.4,0,0.7,0.4,1.1c0.3,0.3,0.9,0.9,2.2-0.4L12,6.8c0.7-0.7,1.1-1.5,1.2-2.3
		C13.3,3.7,13,3,12.4,2.4s-1.3-0.9-2.1-0.8C9.5,1.6,8.6,2,7.9,2.7L4.2,6.5c-1,1-1.6,2.2-1.7,3.4c-0.1,1.2,0.4,2.4,1.3,3.3
		c0.8,0.8,1.9,1.3,3,1.3c1.3,0,2.6-0.6,3.7-1.7l3-3l1.1,1.1l-3,3C10.3,15.3,8.6,16,6.9,16z"/>
</g>
</svg>
