<?xml version="1.0" encoding="utf-8"?>
<!DOCTYPE svg PUBLIC "-//W3C//DTD SVG 1.1//EN" "http://www.w3.org/Graphics/SVG/1.1/DTD/svg11.dtd">
<svg version="1.1" id="Layer_1" xmlns="http://www.w3.org/2000/svg" xmlns:xlink="http://www.w3.org/1999/xlink" x="0px" y="0px"
	 width="16px" height="16px" viewBox="0 16 16 16" enable-background="new 0 16 16 16" xml:space="preserve">
<path fill="currentColor" d="M7.5,26.5c0.1,0.2,0.1,0.4,0.1,0.5c0,0.4-0.1,0.7-0.4,1l-2,2c-0.3,0.3-0.6,0.4-1,0.4s-0.7-0.1-1-0.4l-1.4-1.4
	c-0.3-0.3-0.4-0.6-0.4-1s0.1-0.7,0.4-1l2-2c0.3-0.3,0.6-0.4,1-0.4c0.2,0,0.4,0,0.5,0.1l1.1-1.1c-0.3-0.2-0.9-0.4-1.5-0.4
	c-0.7,0-1.5,0.3-2,0.8l-2,2c-1.1,1.1-1.1,3,0,4.1l1.4,1.4c0.6,0.6,1.3,0.8,2,0.8s1.5-0.3,2-0.8l2-2c1-1,1.1-2.6,0.3-3.7L7.5,26.5z
	 M15.2,18.2l-1.4-1.4c-0.6-0.6-1.3-0.8-2-0.8s-1.5,0.3-2,0.8l-2,2c-1,1-1.1,2.6-0.3,3.7l1.1-1.1c-0.2-0.1-0.2-0.3-0.2-0.5
	c0-0.4,0.1-0.7,0.4-1l2-2c0.3-0.3,0.6-0.4,1-0.4s0.7,0.1,1,0.4l1.4,1.4c0.3,0.3,0.4,0.6,0.4,1c0,0.4-0.1,0.7-0.4,1l-2,2
	c-0.3,0.3-0.6,0.4-1,0.4c-0.2,0-0.4,0-0.5-0.1l-1.3,1c0.5,0.4,1.1,0.5,1.7,0.5c0.7,0,1.5-0.3,2-0.8l2-2
	C16.3,21.2,16.3,19.4,15.2,18.2z M5.2,27.4l6.1-6.1l-0.5-0.5l-6.1,6.1L5.2,27.4z"/>
</svg>
