<?xml version="1.0" encoding="utf-8"?>
<!-- Generator: Adobe Illustrator 17.1.0, SVG Export Plug-In . SVG Version: 6.00 Build 0)  -->
<!DOCTYPE svg PUBLIC "-//W3C//DTD SVG 1.1//EN" "http://www.w3.org/Graphics/SVG/1.1/DTD/svg11.dtd">
<svg version="1.1" id="Layer_1" xmlns="http://www.w3.org/2000/svg" xmlns:xlink="http://www.w3.org/1999/xlink" x="0px" y="0px"
	 width="16px" height="16px" viewBox="0 0 16 16" enable-background="new 0 0 16 16" xml:space="preserve">
<path fill="currentColor" d="M6.6,9.4c-0.3-0.3-0.9-0.3-1.2,0L2.8,12v-1.4c0-0.5-0.4-0.9-0.9-0.9h0C1.4,9.8,1,10.1,1,10.6v3.5C1,14.6,1.4,15,1.9,15h3.5
	c0.5,0,0.9-0.4,0.9-0.9v0c0-0.5-0.4-0.9-0.9-0.9H4l2.6-2.6C6.9,10.3,6.9,9.8,6.6,9.4L6.6,9.4z M14.1,9.8L14.1,9.8
	c-0.5,0-0.9,0.4-0.9,0.9V12l-2.6-2.6c-0.3-0.3-0.9-0.3-1.2,0l0,0c-0.3,0.3-0.3,0.9,0,1.2l2.6,2.6h-1.4c-0.5,0-0.9,0.4-0.9,0.9v0
	c0,0.5,0.4,0.9,0.9,0.9h3.5c0.5,0,0.9-0.4,0.9-0.9v-3.5C15,10.1,14.6,9.8,14.1,9.8z M4,2.8h1.4c0.5,0,0.9-0.4,0.9-0.9v0
	C6.2,1.4,5.9,1,5.4,1H1.9C1.4,1,1,1.4,1,1.9v3.5c0,0.5,0.4,0.9,0.9,0.9h0c0.5,0,0.9-0.4,0.9-0.9V4l2.6,2.6c0.3,0.3,0.9,0.3,1.2,0
	l0,0c0.3-0.3,0.3-0.9,0-1.2L4,2.8z M14.1,1h-3.5c-0.5,0-0.9,0.4-0.9,0.9v0c0,0.5,0.4,0.9,0.9,0.9H12L9.4,5.3c-0.3,0.3-0.3,0.9,0,1.2
	l0,0c0.3,0.3,0.9,0.3,1.2,0L13.2,4v1.4c0,0.5,0.4,0.9,0.9,0.9h0c0.5,0,0.9-0.4,0.9-0.9V1.9C15,1.4,14.6,1,14.1,1z"/>
</svg>
