<?xml version="1.0" encoding="utf-8"?>
<!-- Generator: Adobe Illustrator 17.1.0, SVG Export Plug-In . SVG Version: 6.00 Build 0)  -->
<!DOCTYPE svg PUBLIC "-//W3C//DTD SVG 1.1//EN" "http://www.w3.org/Graphics/SVG/1.1/DTD/svg11.dtd">
<svg version="1.1" id="Layer_1" xmlns="http://www.w3.org/2000/svg" xmlns:xlink="http://www.w3.org/1999/xlink" x="0px" y="0px"
	 width="16px" height="16px" viewBox="0 16 16 16" enable-background="new 0 16 16 16" xml:space="preserve">
<path fill="currentColor" d="M10.7,23.7l3.7-4.7c-0.7,0-1.3,0-2,0c-0.1,0.1-3.5,4.6-3.6,4.7c0-1.6,0-3.2,0-4.7l0,0c-0.5,0-1.1,0-1.6,0l0,0
	c0,1.6,0,3.2,0,4.7c-0.1-0.1-3.5-4.6-3.6-4.7c-0.7,0-1.3,0-2,0l3.7,4.7c-0.1,0.1-4,5.2-4,5.3c0.7,0,1.3,0,2,0c1-1.4,2-2.8,3.1-4.2
	c0.3,0.3,0.5,0.7,0.8,1c0,1,0,2.1,0,3.2l0,0c0.5,0,1.1,0,1.6,0l0,0c0-1.1,0-2.1,0-3.2c0.3-0.4,0.5-0.7,0.8-1c1,1.4,2,2.8,3.1,4.2
	c0.7,0,1.3,0,2,0C14.7,29,10.7,23.8,10.7,23.7z"/>
</svg>
