<?xml version="1.0" encoding="utf-8"?>
<svg width="24" height="17" viewBox="0 0 24 17" fill="none" xmlns="http://www.w3.org/2000/svg">
	<path fill-rule="evenodd" clip-rule="evenodd" d="M11.0405 6.73581
		C11.0405 7.84037 10.1451 8.73581 9.04054 8.73581
		H8.04054
		C6.93597 8.73581 6.04054 7.84037 6.04054 6.73581
		V4.79983
		C6.0344 4.69329 6.02897 4.58292 6.02531 4.47088
		C6.0087 3.9625 6.02549 3.36398 6.19371 2.7679
		C6.36567 2.15856 6.69442 1.55742 7.28305 1.05734
		C7.86463 0.563251 8.65573 0.205177 9.69532 0
		L9.98576 1.47161
		C9.12532 1.64143 8.59141 1.91404 8.25423 2.20049
		C7.92411 2.48096 7.74036 2.81021 7.63733 3.1753
		C7.58707 3.35338 7.55588 3.54068 7.53848 3.73581
		H9.04054
		C10.1451 3.73581 11.0405 4.63124 11.0405 5.73581
		V6.73581ZM5.02027 6.75
		C5.02027 7.85457 4.12484 8.75 3.02027 8.75
		H2.02027
		C0.915704 8.75 0.0202737 7.85457 0.0202737 6.75
		V4.81402
		C0.0141349 4.70748 0.00870275 4.59711 0.00504208 4.48507
		C-0.0115685 3.97669 0.00522947 3.37817 0.173448 2.78209
		C0.34541 2.17275 0.674159 1.57161 1.26279 1.07153
		C1.84436 0.577442 2.63547 0.219368 3.67505 0.0141907L3.9655 1.4858
		C3.10505 1.65562 2.57115 1.92823 2.23397 2.21468
		C1.90384 2.49515 1.72009 2.8244 1.61706 3.18949
		C1.56681 3.36757 1.53562 3.55487 1.51821 3.75
		H3.02027
		C4.12484 3.75 5.02027 4.64543 5.02027 5.75
		V6.75Z" fill="currentColor"/>
	<path fill-rule="evenodd" clip-rule="evenodd" d="M12.9595 10.2642
		C12.9595 9.15963 13.8549 8.26419 14.9595 8.26419
		H15.9595
		C17.064 8.26419 17.9595 9.15963 17.9595 10.2642
		V12.2002
		C17.9656 12.3067 17.971 12.4171 17.9747 12.5291
		C17.9913 13.0375 17.9745 13.636 17.8063 14.2321
		C17.6343 14.8414 17.3056 15.4426 16.7169 15.9427
		C16.1354 16.4367 15.3443 16.7948 14.3047 17L14.0142 15.5284
		C14.8747 15.3586 15.4086 15.086 15.7458 14.7995
		C16.0759 14.519 16.2596 14.1898 16.3627 13.8247
		C16.4129 13.6466 16.4441 13.4593 16.4615 13.2642
		H14.9595
		C13.8549 13.2642 12.9595 12.3688 12.9595 11.2642
		V10.2642ZM18.9797 10.25
		C18.9797 9.14543 19.8752 8.25 20.9797 8.25
		H21.9797
		C23.0843 8.25 23.9797 9.14543 23.9797 10.25
		V12.186
		C23.9859 12.2925 23.9913 12.4029 23.995 12.5149
		C24.0116 13.0233 23.9948 13.6218 23.8266 14.2179
		C23.6546 14.8273 23.3258 15.4284 22.7372 15.9285
		C22.1556 16.4226 21.3645 16.7806 20.3249 16.9858L20.0345 15.5142
		C20.8949 15.3444 21.4289 15.0718 21.766 14.7853
		C22.0962 14.5049 22.2799 14.1756 22.3829 13.8105
		C22.4332 13.6324 22.4644 13.4451 22.4818 13.25
		H20.9797
		C19.8752 13.25 18.9797 12.3546 18.9797 11.25
		V10.25Z" fill="currentColor"/>
</svg>
