<?xml version="1.0" encoding="utf-8"?>
<svg width="24" height="25" viewBox="0 0 24 25" xmlns="http://www.w3.org/2000/svg">
	<path fill-rule="evenodd" clip-rule="evenodd" d="M4 7.64355
		C4 7.9197 4.22386 8.14355 4.5 8.14355
		H19.5
		C19.7761 8.14355 20 7.9197 20 7.64355
		V6.64355
		C20 6.36741 19.7761 6.14355 19.5 6.14355
		H4.5
		C4.22386 6.14355 4 6.36741 4 6.64355
		V7.64355
		Z
		M14 17.6436
		C14 17.9197 14.2239 18.1436 14.5 18.1436
		H19.5
		C19.7761 18.1436 20 17.9197 20 17.6436
		V16.6436
		C20 16.3674 19.7761 16.1436 19.5 16.1436
		H14.5
		C14.2239 16.1436 14 16.3674 14 16.6436
		V17.6436
		Z
		M10.5 13.1436
		C10.2239 13.1436 10 12.9197 10 12.6436
		V11.6436
		C10 11.3674 10.2239 11.1436 10.5 11.1436
		H19.5
		C19.7761 11.1436 20 11.3674 20 11.6436
		V12.6436
		C20 12.9197 19.7761 13.1436 19.5 13.1436
		H10.5
		Z" fill="currentColor"/>
</svg>