<?xml version="1.0" encoding="utf-8"?>
<svg version="1.1" id="Layer_1" xmlns="http://www.w3.org/2000/svg" xmlns:xlink="http://www.w3.org/1999/xlink" x="0px" y="0px"
	 width="16px" height="16px" viewBox="0 0 16 16" enable-background="new 0 0 16 16" xml:space="preserve">
<g fill="currentColor">
    <path d="M13,2h-3C9.7,0.6,8.9,0,8,0S6.2,0.7,6,2H3C1.9,2,1,2.9,1,4v10c0,1.1,0.9,2,2,2h10c1.1,0,2-0.9,2-2V4C15,2.9,14.1,2,13,2z
            M8,0.5c0.8,0,1.5,0.7,1.5,1.5c0,0.8-0.7,1.5-1.5,1.5S6.5,2.8,6.5,2C6.5,1.2,7.2,0.5,8,0.5z M14,15H2V3h3v2h6V3h3V15z M9.6,10.9
        L8.5,7H7.5l-1.1,3.9L5.4,7H4l1.6,6H7l1-3.5l1,3.5h1.4L12,7h-1.4L9.6,10.9z"/>
</g>
</svg>
