<?xml version="1.0" encoding="utf-8"?>
<svg width="24" height="24" viewBox="0 0 24 24" xmlns="http://www.w3.org/2000/svg">
	<path fill-rule="evenodd" clip-rule="evenodd" d="M4.5 8.5
		C3.67157 8.5 3 7.82843 3 7
		C3 6.17157 3.67157 5.5 4.5 5.5
		C5.32843 5.5 6 6.17157 6 7
		C6 7.82843 5.32843 8.5 4.5 8.5
		Z
		M8.5 8
		C8.22386 8 8 7.77614 8 7.5
		V6.5
		C8 6.22386 8.22386 6 8.5 6
		H19.5
		C19.7761 6 20 6.22386 20 6.5
		V7.5
		C20 7.77614 19.7761 8 19.5 8
		H8.5
		Z
		M8 12.5
		C8 12.7761 8.22386 13 8.5 13
		H19.5
		C19.7761 13 20 12.7761 20 12.5
		V11.5
		C20 11.2239 19.7761 11 19.5 11
		H8.5
		C8.22386 11 8 11.2239 8 11.5
		V12.5
		ZM4.5 13.5
		C3.67157 13.5 3 12.8284 3 12
		C3 11.1716 3.67157 10.5 4.5 10.5
		C5.32843 10.5 6 11.1716 6 12
		C6 12.8284 5.32843 13.5 4.5 13.5
		Z
		M8 17.5
		C8 17.7761 8.22386 18 8.5 18
		H19.5
		C19.7761 18 20 17.7761 20 17.5
		V16.5
		C20 16.2239 19.7761 16 19.5 16
		H8.5
		C8.22386 16 8 16.2239 8 16.5
		V17.5
		Z
		M4.5 18.5
		C3.67157 18.5 3 17.8284 3 17
		C3 16.1716 3.67157 15.5 4.5 15.5
		C5.32843 15.5 6 16.1716 6 17
		C6 17.8284 5.32843 18.5 4.5 18.5
		Z" fill="currentColor"/>
</svg>
