<?xml version="1.0" encoding="utf-8"?>
<svg version="1.1" id="Layer_1" xmlns="http://www.w3.org/2000/svg" xmlns:xlink="http://www.w3.org/1999/xlink" x="0px" y="0px"
	 width="18px" height="18px" viewBox="0 841.9 18 18" style="enable-background:new 0 841.9 18 18;" xml:space="preserve">
<path fill="currentColor" d="M2,850.9c0-2.4,1.2-4.5,3-5.7v1.7c0,0.5,0.4,1,1,1s1-0.5,1-1v-4c0-0.3-0.1-0.5-0.3-0.7l0,0
	c-0.2-0.2-0.4-0.3-0.7-0.3H2c-0.6,0-1,0.4-1,1s0.5,1,1,1h1.4c-2.1,1.7-3.4,4.2-3.4,7c0,5,4,9,9,9v-2C5.1,857.9,2,854.8,2,850.9z
	 M16,857.9h-1.4c2-1.7,3.4-4.2,3.4-7c0-5-4-9-9-9v2c3.9,0,7,3.1,7,7c0,2.4-1.2,4.5-3,5.7v-1.7c0-0.5-0.4-1-1-1s-1,0.5-1,1v4
	c0,0.3,0.1,0.5,0.3,0.7l0,0c0.2,0.2,0.4,0.3,0.7,0.3h4c0.5,0,1-0.4,1-1C17,858.3,16.5,857.9,16,857.9z"/>
</svg>
