<?xml version="1.0" encoding="UTF-8" standalone="no"?>
<svg width="24" height="24" viewBox="0 0 24 24" xmlns="http://www.w3.org/2000/svg">
	<path fill-rule="evenodd" clip-rule="evenodd" d="M15.3116 5.29289
		C15.7022 4.90237 16.3353 4.90237 16.7259 5.29289
		L20.933 9.5
		L16.7259 13.7071
		C16.3353 14.0976 15.7022 14.0976 15.3116 13.7071
		C14.9211 13.3166 14.9211 12.6834 15.3116 12.2929
		L17.1045 10.5
		H10.5188
		C8.62872 10.5 7.50663 11.5661 6.81843 13.0974
		C6.10928 14.6754 5.93973 16.6264 6.01708 17.9413
		C6.04951 18.4926 5.62886 18.9658 5.07753 18.9983
		C4.52619 19.0307 4.05296 18.6101 4.02053 18.0587
		C3.93121 16.5403 4.11166 14.2413 4.99418 12.2776
		C5.89764 10.2673 7.60889 8.5 10.5188 8.5
		H17.1045
		L15.3116 6.70711
		C14.9211 6.31658 14.9211 5.68342 15.3116 5.29289
		Z" fill="currentColor"/>
</svg>
