<?xml version="1.0" encoding="utf-8"?>
<svg width="24px" height="24px" viewBox="0 -2 22 22" xmlns="http://www.w3.org/2000/svg">
	<path fill-rule="evenodd" clip-rule="evenodd" d="M8.8389 0.353553
		C8.64364 0.158291 8.32706 0.158291 8.1318 0.353553
		L7.77824 0.707107
		C7.58298 0.902369 7.58298 1.21895 7.77824 1.41421
		L8.8389 2.47487
		L8.48535 2.82843
		L2.12139 9.19239
		C1.73087 9.58291 1.73087 10.2161 2.12139 10.6066
		L7.77824 16.2635
		C8.16877 16.654 8.80193 16.654 9.19246 16.2635
		L15.5564 9.89949
		L15.91 9.54594
		L16.9706 10.6066
		C17.1659 10.8019 17.4825 10.8019 17.6777 10.6066
		L18.0313 10.253
		C18.2266 10.0578 18.2266 9.7412 18.0313 9.54594
		L16.9706 8.48528
		L15.5564 7.07107
		L11.3138 2.82843
		L9.89957 1.41421
		L8.8389 0.353553
		ZM9.89957 4.24264
		L14.1422 8.48528
		L13.5337 9.09377
		L4.34713 10.0039
		L4.24271 9.89949
		L9.89957 4.24264
		ZM19.4839 15.1394
		C19.4837 16.3585 18.3779 16.9454 17.6779 16.9455
		C16.9779 16.9456 15.8723 16.3592 15.8726 15.1402
		C15.8728 13.9212 17.3446 12.1637 17.6789 12.1303
		C17.9473 12.1034 19.4842 13.9204 19.4839 15.1394
		Z" fill="currentColor"/>
	<path d="M5.5 11.5
			L13 10.7
			L8.8 15
			Z" stroke="none" />
	<path transform="scale(0.6, 0.6)" transform-origin="17.8 15.1" fill-rule="evenodd" clip-rule="evenodd" d="M19.4839 15.1394
		C19.4837 16.3585 18.3779 16.9454 17.6779 16.9455
		C16.9779 16.9456 15.8723 16.3592 15.8726 15.1402
		C15.8728 13.9212 17.3446 12.1637 17.6789 12.1303
		C17.9473 12.1034 19.4842 13.9204 19.4839 15.1394
		Z" />
</svg>
