<?xml version="1.0" encoding="utf-8"?>
<svg width="24" height="24" viewBox="0 0 24 24" xmlns="http://www.w3.org/2000/svg">
	<path d="M19.7786 4.46447
		C17.826 2.51184 14.6602 2.51184 12.7076 4.46447
		L9.87913 7.29289
		C7.92651 9.24551 7.92651 12.4113 9.87913 14.364
		C10.2697 14.7545 10.9028 14.7545 11.2933 14.364
		C11.6839 13.9734 11.6839 13.3403 11.2933 12.9497
		C10.1218 11.7782 10.1218 9.87868 11.2933 8.70711
		L14.1218 5.87868
		C15.2933 4.70711 17.1928 4.70711 18.3644 5.87868
		C19.536 7.05025 19.536 8.94975 18.3644 10.1213
		L16.9502 11.5355
		C16.5597 11.9261 16.5597 12.5592 16.9502 12.9497
		C17.3407 13.3403 17.9739 13.3403 18.3644 12.9497
		L19.7786 11.5355
		C21.7312 9.58291 21.7312 6.41709 19.7786 4.46447
		Z" fill="currentColor"/>
	<path d="M4.22228 20.0208
		C6.1749 21.9734 9.34073 21.9734 11.2933 20.0208
		L14.1218 17.1924
		C16.0744 15.2398 16.0744 12.0739 14.1218 10.1213
		C13.7312 9.7308 13.0981 9.7308 12.7076 10.1213
		C12.317 10.5118 12.317 11.145 12.7076 11.5355
		C13.8791 12.7071 13.8791 14.6066 12.7076 15.7782
		L9.87913 18.6066
		C8.70756 19.7782 6.80806 19.7782 5.63649 18.6066
		C4.46492 17.435 4.46492 15.5355 5.63649 14.364
		L7.05071 12.9497
		C7.44123 12.5592 7.44123 11.9261 7.05071 11.5355
		C6.66018 11.145 6.02702 11.145 5.63649 11.5355
		L4.22228 12.9497
		C2.26966 14.9024 2.26966 18.0682 4.22228 20.0208
		Z" fill="currentColor"/>
</svg>
