<?xml version="1.0" encoding="utf-8"?>
<svg width="24px" height="24px" viewBox="26 24 24 24" xmlns="http://www.w3.org/2000/svg">
	<path fill-rule="evenodd" clip-rule="evenodd" d="M36.416 27.9307
		C36.2207 27.7355 35.9041 27.7355 35.7089 27.9307
		L35.3553 28.2843
		C35.1601 28.4795 35.1601 28.7961 35.3553 28.9914
		L36.416 30.052
		L36.0624 30.4056
		L29.6985 36.7696
		C29.3079 37.1601 29.3079 37.7932 29.6985 38.1838
		L35.3553 43.8406
		C35.7458 44.2311 36.379 44.2311 36.7695 43.8406
		L43.1335 37.4767
		L43.487 37.1231
		L44.5477 38.1838
		C44.743 38.379 45.0596 38.379 45.2548 38.1838
		L45.6084 37.8302
		C45.8036 37.635 45.8036 37.3184 45.6084 37.1231
		L44.5477 36.0624
		L43.1335 34.6482
		L38.8909 30.4056
		L37.4766 28.9914
		L36.416 27.9307
		ZM37.4766 31.8198
		L41.7193 36.0624
		L36.0624 41.7193
		L31.8198 37.4767
		L37.4766 31.8198
		Z" fill="currentColor"/>
	<path transform="translate(0.2, -0.4)" d="M31.8024 38.0954
		L40.8752 37.1965
		L35.8893 42.1824
		L31.8024 38.0954
		Z" stroke="none"/>
	<path d="M46.5611 42.7165
		C46.561 43.1571 46.3673 43.4732 46.103 43.6904
		C45.8244 43.9194 45.484 44.0226 45.2549 44.0226
		C45.0258 44.0227 44.6856 43.9196 44.4072 43.6909
		C44.1431 43.4739 43.9496 43.158 43.9497 42.7174
		C43.9498 42.2679 44.2408 41.6311 44.6396 41.0511
		C44.8305 40.7735 45.0277 40.5357 45.1897 40.3707
		C45.213 40.3469 45.2349 40.3254 45.2553 40.3059
		C45.2677 40.318 45.2807 40.331 45.2942 40.3448
		C45.4533 40.5072 45.6529 40.7473 45.8483 41.0295
		C46.0435 41.3114 46.2261 41.6232 46.3583 41.9275
		C46.4929 42.2376 46.5611 42.5079 46.5611 42.7165
		Z" stroke="currentColor" stroke-width="1.5" fill="none" />
	<path d="M46.5611 42.7165
		C46.561 43.1571 46.3673 43.4732 46.103 43.6904
		C45.8244 43.9194 45.484 44.0226 45.2549 44.0226
		C45.0258 44.0227 44.6856 43.9196 44.4072 43.6909
		C44.1431 43.4739 43.9496 43.158 43.9497 42.7174
		C43.9498 42.2679 44.2408 41.6311 44.6396 41.0511
		C44.8305 40.7735 45.0277 40.5357 45.1897 40.3707
		C45.213 40.3469 45.2349 40.3254 45.2553 40.3059
		C45.2677 40.318 45.2807 40.331 45.2942 40.3448
		C45.4533 40.5072 45.6529 40.7473 45.8483 41.0295
		C46.0435 41.3114 46.2261 41.6232 46.3583 41.9275
		C46.4929 42.2376 46.5611 42.5079 46.5611 42.7165
		Z" stroke="none" stroke-width="3" />
</svg>