<?xml version="1.0" encoding="utf-8"?>
<svg width="24" height="24" viewBox="0 0 24 24" xmlns="http://www.w3.org/2000/svg">
	<path fill-rule="evenodd" clip-rule="evenodd" d="M4 7.5
		C4 7.77614 4.22386 8 4.5 8
		H19.5
		C19.7761 8 20 7.77614 20 7.5
		V6.5
		C20 6.22386 19.7761 6 19.5 6
		H4.5
		C4.22386 6 4 6.22386 4 6.5
		V7.5
		Z
		M4 17.5
		C4 17.7761 4.22386 18 4.5 18
		H9.5
		C9.77614 18 10 17.7761 10 17.5
		V16.5
		C10 16.2239 9.77614 16 9.5 16
		H4.5
		C4.22386 16 4 16.2239 4 16.5
		V17.5
		Z
		M4.5 13
		C4.22386 13 4 12.7761 4 12.5
		V11.5
		C4 11.2239 4.22386 11 4.5 11
		H14.5
		C14.7761 11 15 11.2239 15 11.5
		V12.5
		C15 12.7761 14.7761 13 14.5 13
		H4.5
		Z" fill="currentColor"/>
</svg>