<?xml version="1.0" encoding="utf-8"?>
<!-- Generator: Adobe Illustrator 17.1.0, SVG Export Plug-In . SVG Version: 6.00 Build 0)  -->
<!DOCTYPE svg PUBLIC "-//W3C//DTD SVG 1.1//EN" "http://www.w3.org/Graphics/SVG/1.1/DTD/svg11.dtd">
<svg version="1.1" id="Layer_1" xmlns="http://www.w3.org/2000/svg" xmlns:xlink="http://www.w3.org/1999/xlink" x="0px" y="0px"
	 width="16px" height="16px" viewBox="0 16 16 16" enable-background="new 0 16 16 16" xml:space="preserve">
<path fill="currentColor" d="M1,20h1v-4H0v1h1V20z M12,25H5v1h7V25z M5,16v1h11v-1H5z M12,19H5v1h7V19z M0,29h2v0.3l-0.5,0.2v1L2,30.7V31H0v1h3v-4H0V29z
	 M5,23h11v-1H5V23z M5,29h11v-1H5V29z M0,23h2l-2,2v1h3v-1H1l2-2v-1H0V23z M5,32h7v-1H5V32z"/>
</svg>
