<?xml version="1.0" encoding="utf-8"?>
<svg width="24" height="24" viewBox="0 0 24 24" xmlns="http://www.w3.org/2000/svg">
	<path fill-rule="evenodd" clip-rule="evenodd" d="M6.5 8
		C6.22386 8 6 7.77614 6 7.5
		V6.5
		C6 6.22386 6.22386 6 6.5 6
		H11.5
		H12.5
		H17.5
		C17.7761 6 18 6.22386 18 6.5
		V7.5
		C18 7.77614 17.7761 8 17.5 8
		H13
		V11
		H17
		V12
		H7
		V11
		H11
		V8
		H6.5
		ZM11 13
		H13
		V19.5
		C13 19.7761 12.7761 20 12.5 20
		H11.5
		C11.2239 20 11 19.7761 11 19.5
		V13
		Z" fill="currentColor"/>
</svg>