<?xml version="1.0" encoding="UTF-8" standalone="no"?>
<svg width="24" height="24" viewBox="0 0 24 24" xmlns="http://www.w3.org/2000/svg">
  <path fill-rule="evenodd" clip-rule="evenodd" d="
    M8.68836 5.29289
    C8.29783 4.90237 7.66467 4.90237 7.27414 5.29289
    L3.06704 9.5
    L7.27414 13.7071
    C7.66467 14.0976 8.29783 14.0976 8.68836 13.7071
    C9.07888 13.3166 9.07888 12.6834 8.68836 12.2929
    L6.89546 10.5
    H13.4812
    C15.3713 10.5 16.4934 11.5661 17.1816 13.0974
    C17.8907 14.6754 18.0603 16.6264 17.9829 17.9413
    C17.9505 18.4926 18.3711 18.9658 18.9225 18.9983
    C19.4738 19.0307 19.947 18.6101 19.9795 18.0587
    C20.0688 16.5403 19.8883 14.2413 19.0058 12.2776
    C18.1024 10.2673 16.3911 8.5 13.4812 8.5
    H6.89546
    L8.68836 6.70711
    C9.07888 6.31658 9.07888 5.68342 8.68836 5.29289
    Z" fill="currentColor"/>
</svg>