<?xml version="1.0" encoding="utf-8"?>
<svg width="24" height="24" viewBox="0 0 24 24" xmlns="http://www.w3.org/2000/svg">
	<path fill-rule="evenodd" clip-rule="evenodd" d="
		M6 4
		H4
		V20
		H6
		V4
		Z
		M11 5
		C11 4.44772 11.4477 4 12 4
		H14
		C14.5523 4 15 4.44772 15 5
		V8
		H14.95
		L14.9501 8.0828
		C14.951 8.747 14.9524 9.69889 14.451 10.4586
		C13.8728 11.3346 12.807 11.75 11.2 11.75
		V10.25
		C12.593 10.25 13.0272 9.89267 13.199 9.63232
		C13.4264 9.28783 13.45 8.78852 13.45 8
		H12
		C11.4477 8 11 7.55228 11 7
		V5
		Z
		M17.5 5
		C17.5 4.44772 17.9477 4 18.5 4
		H20.5
		C21.0523 4 21.5 4.44772 21.5 5
		V8
		H21.45
		L21.4501 8.0828
		C21.451 8.747 21.4524 9.69889 20.951 10.4586
		C20.3728 11.3346 19.307 11.75 17.7 11.75
		V10.25
		C19.093 10.25 19.5272 9.89267 19.699 9.63232
		C19.9264 9.28783 19.95 8.78852 19.95 8
		H18.5
		C17.9477 8 17.5 7.55228 17.5 7
		V5
		Z" fill="currentColor"/>
</svg>
