<?xml version="1.0" encoding="utf-8"?>
<svg version="1.1" id="Layer_1" xmlns="http://www.w3.org/2000/svg" xmlns:xlink="http://www.w3.org/1999/xlink" x="0px" y="0px"
	 width="16px" height="16px" viewBox="0 16 16 16" enable-background="new 0 16 16 16" xml:space="preserve">
<path fill="currentColor" d="M3.5,19h4.3c0.9,0,1.5,0,1.9,0.1s0.8,0.2,1.1,0.4s0.6,0.5,0.8,0.8c0.2,0.3,0.4,0.8,0.4,1.2c0,0.5-0.1,0.9-0.4,1.3
	c-0.3,0.4-0.6,0.7-1.1,0.9c0.7,0.2,1.2,0.5,1.5,0.9c0.4,0.4,0.5,0.9,0.5,1.5c0,0.5-0.1,0.9-0.3,1.3c-0.2,0.4-0.5,0.8-0.9,1
	c-0.4,0.3-0.9,0.4-1.5,0.5C9.4,29,8.5,29,7.2,29H3.5V19z M5.4,20.7V23h1.7c0.8,0,1.4,0,1.6,0c0.4,0,0.7-0.2,0.9-0.4
	c0.2-0.2,0.3-0.5,0.3-0.8c0-0.3-0.1-0.6-0.3-0.8s-0.5-0.3-0.8-0.3c-0.2,0-0.8,0-1.9,0H5.4z M5.5,24.6v2.7h2.2c0.8,0,1.3,0,1.5-0.1
	c0.3-0.1,1.7-0.3,1.7-1.3s-1.2-1.1-1.5-1.2c-0.4,0-1-0.1-2-0.1H5.5z"/>
</svg>
