<?xml version="1.0" encoding="utf-8"?>
<svg width="24" height="25" viewBox="0 0 24 25" xmlns="http://www.w3.org/2000/svg">
	<path fill-rule="evenodd" clip-rule="evenodd" d="M4 7.64355
		C4 7.9197 4.22386 8.14355 4.5 8.14355
		H19.5
		C19.7761 8.14355 20 7.9197 20 7.64355
		V6.64355
		C20 6.36741 19.7761 6.14355 19.5 6.14355
		H4.5
		C4.22386 6.14355 4 6.36741 4 6.64355
		V7.64355
		Z
		M9 17.6436
		C9 17.9197 9.22386 18.1436 9.5 18.1436
		H14.5
		C14.7761 18.1436 15 17.9197 15 17.6436
		V16.6436
		C15 16.3674 14.7761 16.1436 14.5 16.1436
		H9.5
		C9.22386 16.1436 9 16.3674 9 16.6436
		V17.6436
		Z
		M7.5 13.1436
		C7.22386 13.1436 7 12.9197 7 12.6436
		V11.6436
		C7 11.3674 7.22386 11.1436 7.5 11.1436
		H16.5
		C16.7761 11.1436 17 11.3674 17 11.6436
		V12.6436
		C17 12.9197 16.7761 13.1436 16.5 13.1436
		H7.5
		Z" fill="currentColor"/>
</svg>
