<?xml version="1.0" encoding="utf-8"?>
<svg width="19" height="12" viewBox="0 0 19 12" xmlns="http://www.w3.org/2000/svg">
<path fill-rule="evenodd" clip-rule="evenodd" d="M0 1.5
	C0 1.77614 0.223858 2 0.5 2
	H5
	V11.5
	C5 11.7761 5.22386 12 5.5 12
	H6.5
	C6.77614 12 7 11.7761 7 11.5
	V2
	H11.5
	C11.7761 2 12 1.77614 12 1.5
	V0.5
	C12 0.223858 11.7761 0 11.5 0
	H6.5
	H5.5
	H0.5
	C0.223858 0 0 0.223858 0 0.5
	V1.5
	ZM11 5.3
	C11 5.13431 11.1343 5 11.3 5
	H14.3
	H15.2
	H18.2
	C18.3657 5 18.5 5.13431 18.5 5.3
	V6.2
	C18.5 6.36569 18.3657 6.5 18.2 6.5
	H15.5
	V11.7
	C15.5 11.8657 15.3657 12 15.2 12
	H14.3
	C14.1343 12 14 11.8657 14 11.7
	V6.5
	H11.3
	C11.1343 6.5 11 6.36569 11 6.2
	V5.3
	Z" fill="currentColor"/>
</svg>
