<?xml version="1.0" encoding="utf-8"?>
<svg width="24px" height="24px" viewBox="0 0 24 24" xmlns="http://www.w3.org/2000/svg">
	<path fill-rule="evenodd" clip-rule="evenodd" d="M15.7485 17
		V6.33594
		H13.5439
		V11.1846
		C12.875 11.3262 12.1768 11.397 11.4492 11.397
		C10.7314 11.397 10.2261 11.2627 9.93311 10.9941
		C9.64502 10.7256 9.49854 10.2861 9.49365 9.67578
		V6.33594
		H7.28906
		V9.71973
		C7.30859 10.8379 7.66748 11.6924 8.36572 12.2832
		C9.06885 12.874 10.0967 13.1694 11.4492 13.1694
		C12.1768 13.1694 12.875 13.0986 13.5439 12.957
		V17
		H15.7485
		Z
		M6.5 19
		C6.22386 19 6 19.2239 6 19.5
		V20
		C6 20.2761 6.22386 20.5 6.5 20.5
		H17.5
		C17.7761 20.5 18 20.2761 18 20
		V19.5
		C18 19.2239 17.7761 19 17.5 19
		H6.5
		Z" fill="currentColor"/>
</svg>
