<?xml version="1.0" encoding="UTF-8" standalone="no"?>
<svg width="24" height="24" viewBox="0 0 24 24" xmlns="http://www.w3.org/2000/svg">
   <path fill-rule="evenodd" clip-rule="evenodd" d="M8 7.5
      C8 7.77614 8.22386 8 8.5 8
      H19.5
      C19.7761 8 20 7.77614 20 7.5
      V6.5
      C20 6.22386 19.7761 6 19.5 6
      H8.5
      C8.22386 6 8 6.22386 8 6.5
      V7.5
      Z
      M8 12.5
      C8 12.7761 8.22386 13 8.5 13
      H19.5
      C19.7761 13 20 12.7761 20 12.5
      V11.5
      C20 11.2239 19.7761 11 19.5 11
      H8.5
      C8.22386 11 8 11.2239 8 11.5
      V12.5
      Z
      M8.5 18
      C8.22386 18 8 17.7761 8 17.5
      V16.5
      C8 16.2239 8.22386 16 8.5 16
      H19.5
      C19.7761 16 20 16.2239 20 16.5
      V17.5
      C20 17.7761 19.7761 18 19.5 18
      H8.5
      Z" fill="currentColor"/>
   <path d="M6.11523 13.4995
      H3.13184
      C3.16602 13.2049 3.26937 12.9282 3.44189 12.6694
      C3.61605 12.409 3.94157 12.1022 4.41846 11.749
      C4.7098 11.5326 4.89616 11.3682 4.97754 11.2559
      C5.05892 11.1436 5.09961 11.0369 5.09961 10.936
      C5.09961 10.827 5.05892 10.7342 4.97754 10.6577
      C4.89779 10.5796 4.79688 10.5405 4.6748 10.5405
      C4.54785 10.5405 4.44368 10.5804 4.3623 10.6602
      C4.28255 10.7399 4.22884 10.8807 4.20117 11.0825
      L3.20508 11.002
      C3.24414 10.722 3.31576 10.5039 3.41992 10.3477
      C3.52409 10.1898 3.67057 10.0693 3.85938 9.98633
      C4.0498 9.90169 4.31266 9.85938 4.64795 9.85938
      C4.99788 9.85938 5.26969 9.89925 5.46338 9.979
      C5.65869 10.0588 5.81169 10.1816 5.92236 10.3477
      C6.03467 10.512 6.09082 10.6968 6.09082 10.9019
      C6.09082 11.12 6.02653 11.3283 5.89795 11.5269
      C5.771 11.7254 5.53906 11.9435 5.20215 12.1812
      C5.00195 12.3195 4.86768 12.4163 4.79932 12.4717
      C4.73258 12.527 4.65365 12.5994 4.5625 12.689
      H6.11523
      V13.4995
      Z" fill="currentColor"/>
   <path d="M4.16943 16.4556
      L3.22949 16.2871
      C3.30762 15.9876 3.45736 15.7581 3.67871 15.5986
      C3.90169 15.4391 4.21663 15.3594 4.62354 15.3594
      C5.09066 15.3594 5.42839 15.4465 5.63672 15.6206
      C5.84505 15.7948 5.94922 16.0137 5.94922 16.2773
      C5.94922 16.432 5.9069 16.5719 5.82227 16.6973
      C5.73763 16.8226 5.60986 16.9325 5.43896 17.0269
      C5.57731 17.061 5.68311 17.1009 5.75635 17.1465
      C5.87516 17.2197 5.96712 17.3166 6.03223 17.437
      C6.09896 17.5558 6.13232 17.6982 6.13232 17.8643
      C6.13232 18.0726 6.0778 18.2728 5.96875 18.4648
      C5.8597 18.6553 5.70264 18.8026 5.49756 18.9067
      C5.29248 19.0093 5.02311 19.0605 4.68945 19.0605
      C4.36393 19.0605 4.10677 19.0223 3.91797 18.9458
      C3.73079 18.8693 3.57617 18.7578 3.4541 18.6113
      C3.33366 18.4632 3.24089 18.2777 3.17578 18.0547
      L4.16943 17.9229
      C4.2085 18.123 4.26872 18.2622 4.3501 18.3403
      C4.43311 18.4168 4.53809 18.4551 4.66504 18.4551
      C4.7985 18.4551 4.90918 18.4062 4.99707 18.3086
      C5.08659 18.2109 5.13135 18.0807 5.13135 17.918
      C5.13135 17.752 5.08822 17.6234 5.00195 17.5322
      C4.91732 17.4411 4.80176 17.3955 4.65527 17.3955
      C4.57715 17.3955 4.46973 17.415 4.33301 17.4541
      L4.38428 16.7437
      C4.43962 16.7518 4.48275 16.7559 4.51367 16.7559
      C4.64388 16.7559 4.75212 16.7144 4.83838 16.6313
      C4.92627 16.5483 4.97021 16.4499 4.97021 16.3359
      C4.97021 16.2269 4.93766 16.1398 4.87256 16.0747
      C4.80745 16.0096 4.71794 15.9771 4.604 15.9771
      C4.48682 15.9771 4.3916 16.0129 4.31836 16.0845
      C4.24512 16.1545 4.19548 16.2782 4.16943 16.4556
      Z" fill="currentColor"/>
   <path d="M5.45898 4.85938
      V8.49951
      H4.45312
      V6.11426
      C4.29036 6.23796 4.13249 6.33805 3.97949 6.41455
      C3.82812 6.49105 3.6377 6.56429 3.4082 6.63428
      V5.81885
      C3.74674 5.7098 4.0096 5.57878 4.19678 5.42578
      C4.38395 5.27279 4.53044 5.08398 4.63623 4.85938
      H5.45898
      Z" fill="currentColor"/>
</svg>