<?xml version="1.0" encoding="utf-8"?>
<svg width="24" height="24" viewBox="0 0 24 24" xmlns="http://www.w3.org/2000/svg">
    <path fill-rule="evenodd" clip-rule="evenodd" d="M12 20
        C16.4183 20 20 16.4183 20 12
        C20 7.58172 16.4183 4 12 4
        C7.58172 4 4 7.58172 4 12
        C4 16.4183 7.58172 20 12 20
        Z
        M12 22
        C17.5228 22 22 17.5228 22 12
        C22 6.47715 17.5228 2 12 2
        C6.47715 2 2 6.47715 2 12
        C2 17.5228 6.47715 22 12 22
        Z
        M8.32928 10.059
        C8.19669 10.4471 7.80138 10.6441 7.44634 10.4992
        C7.09129 10.3543 6.91096 9.92228 7.04355 9.53424
        C7.74244 7.48892 10.464 7.48889 11.168 9.53233
        C11.3015 9.91998 11.1222 10.3525 10.7675 10.4985
        C10.4128 10.6444 10.017 10.4485 9.88351 10.0608
        C9.62602 9.31335 8.58407 9.31336 8.32928 10.059
        Z
        M15.6707 10.059
        C15.4159 9.31336 14.374 9.31335 14.1165 10.0608
        C13.983 10.4485 13.5872 10.6444 13.2325 10.4985
        C12.8778 10.3525 12.6985 9.91998 12.8321 9.53233
        C13.536 7.48889 16.2576 7.48892 16.9564 9.53424
        C17.089 9.92228 16.9087 10.3543 16.5537 10.4992
        C16.1986 10.6441 15.8033 10.4471 15.6707 10.059
        Z
        M12 16.5
        C10.6041 16.5 9.3982 15.6822 8.83649 14.5
        H12
        H15.1635
        C14.6018 15.6822 13.3959 16.5 12 16.5
        Z
        M7.5 13
        C7.22386 13 6.99737 13.2245 7.02462 13.4993
        C7.27516 16.0263 9.40709 18 12 18
        C14.5929 18 16.7248 16.0263 16.9754 13.4993
        C17.0026 13.2245 16.7761 13 16.5 13
        H12
        H7.5
        Z" fill="currentColor" />
</svg>
