<svg width="24" height="24" viewBox="0 0 24 24" fill="none" xmlns="http://www.w3.org/2000/svg">
<path fill="currentColor" fill-rule="evenodd" clip-rule="evenodd" d="M12 6.75C12.2298 6.75 12.4574 6.70474 12.6697 6.61679C12.882 6.52884 13.0749 6.39994 13.2374 6.23744C13.3999 6.07493 13.5288 5.88202 13.6168 5.6697C13.7047 5.45738 13.75 5.22981 13.75 5C13.75 4.77019 13.7047 4.54262 13.6168 4.3303C13.5288 4.11798 13.3999 3.92507 13.2374 3.76256C13.0749 3.60006 12.882 3.47116 12.6697 3.38321C12.4574 3.29527 12.2298 3.25 12 3.25C11.5359 3.25 11.0908 3.43437 10.7626 3.76256C10.4344 4.09075 10.25 4.53587 10.25 5C10.25 5.46413 10.4344 5.90925 10.7626 6.23744C11.0908 6.56563 11.5359 6.75 12 6.75ZM12 20.75C12.4641 20.75 12.9092 20.5656 13.2374 20.2374C13.5656 19.9092 13.75 19.4641 13.75 19C13.75 18.5359 13.5656 18.0908 13.2374 17.7626C12.9092 17.4344 12.4641 17.25 12 17.25C11.5359 17.25 11.0908 17.4344 10.7626 17.7626C10.4344 18.0908 10.25 18.5359 10.25 19C10.25 19.4641 10.4344 19.9092 10.7626 20.2374C11.0908 20.5656 11.5359 20.75 12 20.75ZM13.75 12C13.75 12.4641 13.5656 12.9092 13.2374 13.2374C12.9092 13.5656 12.4641 13.75 12 13.75C11.5359 13.75 11.0908 13.5656 10.7626 13.2374C10.4344 12.9092 10.25 12.4641 10.25 12C10.25 11.5359 10.4344 11.0908 10.7626 10.7626C11.0908 10.4344 11.5359 10.25 12 10.25C12.4641 10.25 12.9092 10.4344 13.2374 10.7626C13.5656 11.0908 13.75 11.5359 13.75 12Z"/>
</svg>
