<?xml version="1.0" encoding="UTF-8" standalone="no"?>
<svg width="24" height="24" viewBox="0 0 24 24" xmlns="http://www.w3.org/2000/svg">
    <path fill-rule="evenodd" clip-rule="evenodd" d="M6.20486 21
        H17.7951
        C18.9095 21 19.3137 20.884 19.7211 20.6661
        C20.1285 20.4482 20.4482 20.1285 20.6661 19.7211
        C20.884 19.3137 21 18.9095 21 17.7951
        V6.20486
        C21 5.09046 20.884 4.68635 20.6661 4.27894
        C20.4482 3.87153 20.1285 3.5518 19.7211 3.33392
        C19.3137 3.11603 18.9095 3 17.7951 3
        H6.20486
        C5.09046 3 4.68635 3.11603 4.27894 3.33392
        C3.87154 3.5518 3.5518 3.87153 3.33392 4.27894
        C3.11603 4.68635 3 5.09046 3 6.20486
        V17.7951
        C3 18.9095 3.11603 19.3137 3.33392 19.7211
        C3.5518 20.1285 3.87154 20.4482 4.27894 20.6661
        C4.68635 20.884 5.09046 21 6.20486 21
        Z
        M5 19
        H9.17544
        H15.0702
        H19
        V16.5
        V6.20486
        C19 5.77844 18.9813 5.51126 18.9519 5.35599
        C18.9403 5.29517 18.9355 5.28173 18.9042 5.22214
        C18.8732 5.16327 18.8396 5.12903 18.7818 5.09754
        C18.7232 5.06567 18.71 5.06072 18.6503 5.04897
        C18.4977 5.01899 18.2352 5 17.8163 5
        H6.42933
        C6.0104 5 5.7479 5.01899 5.59536 5.04897
        C5.5356 5.06072 5.52241 5.06567 5.46386 5.09754
        C5.40602 5.12903 5.37238 5.16327 5.34144 5.22214
        C5.31013 5.28173 5.30527 5.29517 5.29373 5.35599
        C5.26427 5.51126 5.24561 5.77844 5.24561 6.20486
        V16
        C5.24561 16.8 5.08187 18.3333 5 19
        Z
        M8.73988 7
        C7.76879 7 7 7.72832 7 8.73988
        C7 9.75144 7.76879 10.5 8.73988 10.5
        C9.73121 10.5 10.5 9.75144 10.5 8.73988
        C10.5 7.72832 9.73121 7 8.73988 7
        Z" fill="currentColor"/>
        <path d="M4.5 19
        L8 13.5
        L11.5 16
        L15.5 10
        L19.5 13.5" stroke="currentColor" stroke-width="1.5" stroke-linecap="round" stroke-linejoin="round" fill="none"/>
</svg>