<?xml version="1.0" encoding="utf-8"?>
<!-- Generator: Adobe Illustrator 17.1.0, SVG Export Plug-In . SVG Version: 6.00 Build 0)  -->
<!DOCTYPE svg PUBLIC "-//W3C//DTD SVG 1.1//EN" "http://www.w3.org/Graphics/SVG/1.1/DTD/svg11.dtd">
<svg version="1.1" id="Layer_1" xmlns="http://www.w3.org/2000/svg" xmlns:xlink="http://www.w3.org/1999/xlink" x="0px" y="0px"
	 width="16px" height="16px" viewBox="0 0 16 16" enable-background="new 0 0 16 16" xml:space="preserve">
<g fill="currentColor">
	<path d="M0.2,8.6L0.2,8.6c-0.3-0.3-0.3-0.8,0.1-1.1l3-3c0.3-0.3,0.8-0.4,1.1-0.1l0,0c0.3,0.3,0.3,0.8-0.1,1.1l-3,3
		C1,8.9,0.5,8.9,0.2,8.6z"/>
	<path d="M4.5,11.8L4.5,11.8c-0.3,0.3-0.8,0.3-1.1-0.1l-3-3c-0.3-0.3-0.4-0.8-0.1-1.1l0,0C0.5,7.3,1,7.3,1.3,7.6l3,3
		C4.7,11,4.7,11.5,4.5,11.8z"/>
</g>
<g fill="currentColor">
	<path d="M15.8,8.6L15.8,8.6c0.3-0.3,0.3-0.8-0.1-1.1l-3-3c-0.3-0.3-0.8-0.4-1.1-0.1l0,0c-0.3,0.3-0.3,0.8,0.1,1.1l3,3
		C15,8.9,15.5,8.9,15.8,8.6z"/>
	<path d="M11.5,11.8L11.5,11.8c0.3,0.3,0.8,0.3,1.1-0.1l3-3c0.3-0.3,0.4-0.8,0.1-1.1l0,0c-0.3-0.3-0.8-0.3-1.1,0.1l-3,3
		C11.3,11,11.3,11.5,11.5,11.8z"/>
</g>
<path fill="currentColor" d="M6.9,13.9L6.9,13.9c-0.5-0.1-0.8-0.6-0.7-1.1l1.9-9.8C8.2,2.4,8.7,2,9.1,2.1l0,0c0.5,0.1,0.8,0.6,0.7,1.1l-1.9,9.8
	C7.8,13.6,7.3,14,6.9,13.9z"/>
</svg>
